<svg width="158" height="44" viewBox="0 0 158 44" fill="none" xmlns="http://www.w3.org/2000/svg">
<g filter="url(#filter0_d_18_111)">
<path d="M5.096 34.6808C3.88 34.6808 3.272 34.0408 3.272 32.7608V2.08882C3.272 0.808825 3.88 0.168825 5.096 0.168825C5.608 0.168825 6.008 0.280825 6.296 0.504824C6.616 0.696823 6.904 1.03282 7.16 1.51283L19.592 24.9368L31.976 1.51283C32.232 1.03282 32.504 0.696823 32.792 0.504824C33.08 0.280825 33.496 0.168825 34.04 0.168825C35.224 0.168825 35.816 0.808825 35.816 2.08882V32.7608C35.816 34.0408 35.208 34.6808 33.992 34.6808C32.776 34.6808 32.168 34.0408 32.168 32.7608V7.89683L21.32 28.2968C21.096 28.7128 20.856 29.0168 20.6 29.2088C20.376 29.3688 20.04 29.4488 19.592 29.4488C19.144 29.4488 18.792 29.3528 18.536 29.1608C18.28 28.9688 18.056 28.6808 17.864 28.2968L6.872 7.94483V32.7608C6.872 34.0408 6.28 34.6808 5.096 34.6808ZM58.9825 34.7768C54.5345 34.7768 51.1585 33.6088 48.8545 31.2728C46.5505 28.9048 45.3985 25.4648 45.3985 20.9528V2.18482C45.3985 0.840825 46.0545 0.168825 47.3665 0.168825C48.6785 0.168825 49.3345 0.840825 49.3345 2.18482V20.7608C49.3345 27.7688 52.5505 31.2728 58.9825 31.2728C65.3505 31.2728 68.5345 27.7688 68.5345 20.7608V2.18482C68.5345 0.840825 69.2065 0.168825 70.5505 0.168825C71.8305 0.168825 72.4705 0.840825 72.4705 2.18482V20.9528C72.4705 25.4648 71.3185 28.9048 69.0145 31.2728C66.7425 33.6088 63.3985 34.7768 58.9825 34.7768ZM92.9044 34.7768C90.6004 34.7768 88.4244 34.5048 86.3764 33.9608C84.3604 33.3848 82.6164 32.5528 81.1444 31.4648C80.6324 31.1128 80.3284 30.6968 80.2324 30.2168C80.1364 29.7368 80.1844 29.2888 80.3764 28.8728C80.6004 28.4568 80.9204 28.1848 81.3364 28.0568C81.7524 27.8968 82.2324 27.9928 82.7764 28.3448C84.2164 29.4008 85.7524 30.1528 87.3844 30.6008C89.0164 31.0488 90.8564 31.2728 92.9044 31.2728C95.7844 31.2728 97.9124 30.7448 99.2884 29.6888C100.696 28.6008 101.4 27.1768 101.4 25.4168C101.4 24.0088 100.888 22.8888 99.8644 22.0568C98.8724 21.2248 97.1924 20.5688 94.8244 20.0888L89.8324 19.0808C86.8244 18.4408 84.5684 17.4008 83.0644 15.9608C81.5924 14.4888 80.8564 12.5368 80.8564 10.1048C80.8564 8.08883 81.3684 6.32882 82.3924 4.82483C83.4484 3.32082 84.9044 2.15282 86.7604 1.32082C88.6164 0.488824 90.7604 0.0728235 93.1924 0.0728235C95.2084 0.0728235 97.0804 0.360824 98.8084 0.936824C100.568 1.48082 102.152 2.31282 103.56 3.43282C104.008 3.78482 104.264 4.20082 104.328 4.68082C104.424 5.12882 104.36 5.54482 104.136 5.92883C103.912 6.31282 103.592 6.56882 103.176 6.69682C102.76 6.79282 102.264 6.66482 101.688 6.31282C100.408 5.32082 99.0644 4.61683 97.6564 4.20082C96.2804 3.78482 94.7764 3.57682 93.1444 3.57682C90.6164 3.57682 88.6004 4.16882 87.0964 5.35282C85.5924 6.50482 84.8404 8.04082 84.8404 9.96082C84.8404 11.4968 85.3044 12.7128 86.2324 13.6088C87.1924 14.5048 88.7444 15.1608 90.8884 15.5768L95.8804 16.6328C99.1124 17.3048 101.496 18.3288 103.032 19.7048C104.6 21.0488 105.384 22.8888 105.384 25.2248C105.384 27.1128 104.872 28.7768 103.848 30.2168C102.856 31.6568 101.416 32.7768 99.5284 33.5768C97.6724 34.3768 95.4644 34.7768 92.9044 34.7768ZM114.86 34.6808C113.548 34.6808 112.892 33.9928 112.892 32.6168V2.23282C112.892 0.856825 113.548 0.168825 114.86 0.168825C116.172 0.168825 116.828 0.856825 116.828 2.23282V32.6168C116.828 33.9928 116.172 34.6808 114.86 34.6808ZM141.26 34.7768C137.932 34.7768 135.084 34.0728 132.716 32.6648C130.348 31.2568 128.524 29.2568 127.244 26.6648C125.996 24.0728 125.372 20.9848 125.372 17.4008C125.372 13.8488 125.996 10.7768 127.244 8.18482C128.524 5.59282 130.348 3.59282 132.716 2.18482C135.084 0.776824 137.932 0.0728235 141.26 0.0728235C143.244 0.0728235 145.132 0.360824 146.924 0.936824C148.716 1.51282 150.268 2.32882 151.58 3.38482C152.124 3.76882 152.428 4.21682 152.492 4.72882C152.588 5.24082 152.508 5.70483 152.252 6.12083C151.996 6.50482 151.628 6.76082 151.148 6.88882C150.7 6.98483 150.188 6.82483 149.612 6.40882C147.34 4.58482 144.588 3.67282 141.356 3.67282C137.548 3.67282 134.636 4.87282 132.62 7.27283C130.604 9.67282 129.596 13.0488 129.596 17.4008C129.596 21.7848 130.604 25.1768 132.62 27.5768C134.636 29.9768 137.548 31.1768 141.356 31.1768C144.588 31.1768 147.372 30.2488 149.708 28.3928C150.284 28.0088 150.796 27.8648 151.244 27.9608C151.724 28.0568 152.076 28.2968 152.3 28.6808C152.556 29.0648 152.652 29.4968 152.588 29.9768C152.524 30.4568 152.252 30.8888 151.772 31.2728C150.396 32.4248 148.812 33.3048 147.02 33.9128C145.228 34.4888 143.308 34.7768 141.26 34.7768Z" fill="black"/>
</g>
<defs>
<filter id="filter0_d_18_111" x="0.271973" y="0.0728226" width="157.412" height="43.704" filterUnits="userSpaceOnUse" color-interpolation-filters="sRGB">
<feFlood flood-opacity="0" result="BackgroundImageFix"/>
<feColorMatrix in="SourceAlpha" type="matrix" values="0 0 0 0 0 0 0 0 0 0 0 0 0 0 0 0 0 0 127 0" result="hardAlpha"/>
<feOffset dx="1" dy="5"/>
<feGaussianBlur stdDeviation="2"/>
<feComposite in2="hardAlpha" operator="out"/>
<feColorMatrix type="matrix" values="0 0 0 0 0 0 0 0 0 0 0 0 0 0 0 0 0 0 0.25 0"/>
<feBlend mode="normal" in2="BackgroundImageFix" result="effect1_dropShadow_18_111"/>
<feBlend mode="normal" in="SourceGraphic" in2="effect1_dropShadow_18_111" result="shape"/>
</filter>
</defs>
</svg>
