<svg width="153" height="45" viewBox="0 0 153 45" fill="none" xmlns="http://www.w3.org/2000/svg">
<g filter="url(#filter0_d_18_112)">
<path d="M16.12 35.432C13.816 35.432 11.64 35.16 9.592 34.616C7.576 34.04 5.832 33.208 4.36 32.12C3.848 31.768 3.544 31.352 3.448 30.872C3.352 30.392 3.4 29.944 3.592 29.528C3.816 29.112 4.136 28.84 4.552 28.712C4.968 28.552 5.448 28.648 5.992 29C7.432 30.056 8.968 30.808 10.6 31.256C12.232 31.704 14.072 31.928 16.12 31.928C19 31.928 21.128 31.4 22.504 30.344C23.912 29.256 24.616 27.832 24.616 26.072C24.616 24.664 24.104 23.544 23.08 22.712C22.088 21.88 20.408 21.224 18.04 20.744L13.048 19.736C10.04 19.096 7.784 18.056 6.28 16.616C4.808 15.144 4.072 13.192 4.072 10.76C4.072 8.744 4.584 6.984 5.608 5.48C6.664 3.976 8.12 2.808 9.976 1.976C11.832 1.144 13.976 0.727998 16.408 0.727998C18.424 0.727998 20.296 1.016 22.024 1.592C23.784 2.136 25.368 2.968 26.776 4.088C27.224 4.44 27.48 4.856 27.544 5.336C27.64 5.784 27.576 6.2 27.352 6.584C27.128 6.968 26.808 7.224 26.392 7.352C25.976 7.448 25.48 7.32 24.904 6.968C23.624 5.976 22.28 5.272 20.872 4.856C19.496 4.44 17.992 4.232 16.36 4.232C13.832 4.232 11.816 4.824 10.312 6.008C8.808 7.16 8.056 8.696 8.056 10.616C8.056 12.152 8.52 13.368 9.448 14.264C10.408 15.16 11.96 15.816 14.104 16.232L19.096 17.288C22.328 17.96 24.712 18.984 26.248 20.36C27.816 21.704 28.6 23.544 28.6 25.88C28.6 27.768 28.088 29.432 27.064 30.872C26.072 32.312 24.632 33.432 22.744 34.232C20.888 35.032 18.68 35.432 16.12 35.432ZM45.6761 35.336C44.3641 35.336 43.7081 34.648 43.7081 33.272V4.568H32.9081C31.6921 4.568 31.0841 3.992 31.0841 2.84C31.0841 1.72 31.6921 1.16 32.9081 1.16H58.4921C59.7081 1.16 60.3161 1.72 60.3161 2.84C60.3161 3.992 59.7081 4.568 58.4921 4.568H47.6921V33.272C47.6921 34.648 47.0201 35.336 45.6761 35.336ZM61.3029 35.336C60.5349 35.336 60.0069 35.08 59.7189 34.568C59.4309 34.056 59.4629 33.416 59.8149 32.648L73.0149 2.6C73.5269 1.416 74.3109 0.823999 75.3669 0.823999C75.8469 0.823999 76.2789 0.967999 76.6629 1.256C77.0789 1.512 77.4149 1.96 77.6709 2.6L90.9189 32.648C91.2709 33.416 91.3189 34.056 91.0629 34.568C90.8069 35.08 90.2949 35.336 89.5269 35.336C88.9509 35.336 88.4869 35.192 88.1349 34.904C87.7829 34.584 87.4949 34.136 87.2709 33.56L84.1509 26.36H66.5349L63.4629 33.56C62.9509 34.744 62.2309 35.336 61.3029 35.336ZM75.3189 5.768L67.9749 23.048H82.7589L75.4149 5.768H75.3189ZM105.007 35.336C103.695 35.336 103.039 34.648 103.039 33.272V4.568H92.2394C91.0234 4.568 90.4154 3.992 90.4154 2.84C90.4154 1.72 91.0234 1.16 92.2394 1.16H117.823C119.039 1.16 119.647 1.72 119.647 2.84C119.647 3.992 119.039 4.568 117.823 4.568H107.023V33.272C107.023 34.648 106.351 35.336 105.007 35.336ZM134.782 35.432C132.478 35.432 130.302 35.16 128.254 34.616C126.238 34.04 124.494 33.208 123.022 32.12C122.51 31.768 122.206 31.352 122.11 30.872C122.014 30.392 122.062 29.944 122.254 29.528C122.478 29.112 122.798 28.84 123.214 28.712C123.63 28.552 124.11 28.648 124.654 29C126.094 30.056 127.63 30.808 129.262 31.256C130.894 31.704 132.734 31.928 134.782 31.928C137.662 31.928 139.79 31.4 141.166 30.344C142.574 29.256 143.278 27.832 143.278 26.072C143.278 24.664 142.766 23.544 141.742 22.712C140.75 21.88 139.07 21.224 136.702 20.744L131.71 19.736C128.702 19.096 126.446 18.056 124.942 16.616C123.47 15.144 122.734 13.192 122.734 10.76C122.734 8.744 123.246 6.984 124.27 5.48C125.326 3.976 126.782 2.808 128.638 1.976C130.494 1.144 132.638 0.727998 135.07 0.727998C137.086 0.727998 138.958 1.016 140.686 1.592C142.446 2.136 144.03 2.968 145.438 4.088C145.886 4.44 146.142 4.856 146.207 5.336C146.303 5.784 146.239 6.2 146.014 6.584C145.791 6.968 145.471 7.224 145.055 7.352C144.639 7.448 144.142 7.32 143.566 6.968C142.286 5.976 140.943 5.272 139.535 4.856C138.158 4.44 136.654 4.232 135.022 4.232C132.494 4.232 130.478 4.824 128.974 6.008C127.47 7.16 126.718 8.696 126.718 10.616C126.718 12.152 127.182 13.368 128.11 14.264C129.07 15.16 130.622 15.816 132.766 16.232L137.758 17.288C140.99 17.96 143.374 18.984 144.91 20.36C146.479 21.704 147.263 23.544 147.263 25.88C147.263 27.768 146.751 29.432 145.727 30.872C144.734 32.312 143.294 33.432 141.406 34.232C139.55 35.032 137.342 35.432 134.782 35.432Z" fill="black"/>
</g>
<defs>
<filter id="filter0_d_18_112" x="0.303955" y="0.727997" width="151.958" height="43.704" filterUnits="userSpaceOnUse" color-interpolation-filters="sRGB">
<feFlood flood-opacity="0" result="BackgroundImageFix"/>
<feColorMatrix in="SourceAlpha" type="matrix" values="0 0 0 0 0 0 0 0 0 0 0 0 0 0 0 0 0 0 127 0" result="hardAlpha"/>
<feOffset dx="1" dy="5"/>
<feGaussianBlur stdDeviation="2"/>
<feComposite in2="hardAlpha" operator="out"/>
<feColorMatrix type="matrix" values="0 0 0 0 0 0 0 0 0 0 0 0 0 0 0 0 0 0 0.25 0"/>
<feBlend mode="normal" in2="BackgroundImageFix" result="effect1_dropShadow_18_112"/>
<feBlend mode="normal" in="SourceGraphic" in2="effect1_dropShadow_18_112" result="shape"/>
</filter>
</defs>
</svg>
